<svg xmlns="http://www.w3.org/2000/svg" style="display:none"><symbol id="plus" viewBox="0 0 357 357"><path d="M357 204H204v153h-51V204H0v-51h153V0h51v153h153v51z"/></symbol><symbol id="temp-icon-left-arrow"><path fill-rule="evenodd" d="M7.176.225c.31-.3.799-.3 1.109 0 .3.291.3.775 0 1.065L2.664 6.741h18.549c.432 0 .787.334.787.753 0 .42-.355.764-.787.764H2.664l5.621 5.441c.3.301.3.785 0 1.075a.794.794 0 0 1-1.109 0L.224 8.032a.743.743 0 0 1 0-1.064L7.176.225z"/></symbol><symbol id="temp-icon-right-arrow" viewBox="0 0 31.49 31.49"><path d="M21.205 5.007a1.117 1.117 0 0 0-1.587 1.57l8.047 8.048H1.11c-.618 0-1.11.493-1.11 1.112 0 .62.492 1.127 1.11 1.127h26.555l-8.047 8.032c-.43.444-.43 1.16 0 1.587.444.444 1.16.444 1.587 0l9.952-9.952a1.092 1.092 0 0 0 0-1.57l-9.952-9.95z" fill="#1E201D"/></symbol></svg>